<svg xmlns="http://www.w3.org/2000/svg" viewBox="0 0 300 200">
  <defs>
    <filter id="shadow" x="-20%" y="-20%" width="140%" height="140%">
      <feGaussianBlur in="SourceAlpha" stdDeviation="3"/>
      <feOffset dx="2" dy="2" result="offsetblur"/>
      <feFlood flood-color="#FFD1DC" flood-opacity="0.5"/>
      <feComposite in2="offsetblur" operator="in"/>
      <feMerge>
        <feMergeNode/>
        <feMergeNode in="SourceGraphic"/>
      </feMerge>
    </filter>
  </defs>
  
  <!-- 집 모양 (더 부드러운 곡선) -->
  <path d="M150 40 Q80 90 90 160 Q150 180 210 160 Q220 90 150 40 Z" fill="#FFF5EE" stroke="#FFB6C1" stroke-width="3" filter="url(#shadow)"/>
  
  <!-- 지붕 -->
  <path d="M150 40 Q80 90 80 90 L220 90 Q220 90 150 40 Z" fill="#FFB6C1" stroke="#FF69B4" stroke-width="2"/>
  
  <!-- 창문 (하트 모양) -->
  <g transform="translate(110,100) scale(0.4)">
    <path d="M0,0 C5,-5 15,-5 20,0 C25,5 25,15 20,20 L10,30 L0,20 C-5,15 -5,5 0,0 Z" fill="#87CEFA" stroke="#1E90FF" stroke-width="2"/>
  </g>
  <g transform="translate(175,100) scale(0.4)">
    <path d="M0,0 C5,-5 15,-5 20,0 C25,5 25,15 20,20 L10,30 L0,20 C-5,15 -5,5 0,0 Z" fill="#87CEFA" stroke="#1E90FF" stroke-width="2"/>
  </g>
  
  <!-- 문 -->
  <path d="M140 120 Q140 160 150 160 Q160 160 160 120 Q150 115 140 120 Z" fill="#FFF0F5" stroke="#FFB6C1" stroke-width="2"/>
  <circle cx="155" cy="140" r="2" fill="#FF69B4"/> <!-- 문손잡이 -->
  
  <!-- 꽃 장식 -->
  <g transform="translate(85,155) scale(0.6)">
    <circle cx="0" cy="0" r="5" fill="#FFB6C1"/>
    <circle cx="5" cy="-5" r="5" fill="#FFA07A"/>
    <circle cx="-5" cy="-5" r="5" fill="#98FB98"/>
    <circle cx="5" cy="5" r="5" fill="#DDA0DD"/>
    <circle cx="-5" cy="5" r="5" fill="#87CEFA"/>
  </g>
  <g transform="translate(215,155) scale(0.6)">
    <circle cx="0" cy="0" r="5" fill="#FFB6C1"/>
    <circle cx="5" cy="-5" r="5" fill="#FFA07A"/>
    <circle cx="-5" cy="-5" r="5" fill="#98FB98"/>
    <circle cx="5" cy="5" r="5" fill="#DDA0DD"/>
    <circle cx="-5" cy="5" r="5" fill="#87CEFA"/>
  </g>
  
  <!-- 연기 -->
  <path d="M160 50 Q165 40 170 50 Q175 40 180 50" fill="none" stroke="#E6E6FA" stroke-width="2" opacity="0.7">
    <animate attributeName="d" dur="3s" repeatCount="indefinite" 
      values="M160 50 Q165 40 170 50 Q175 40 180 50;
              M160 50 Q165 35 170 50 Q175 35 180 50;
              M160 50 Q165 40 170 50 Q175 40 180 50"/>
  </path>
  
  <!-- 구름 -->
  <g transform="translate(40,40) scale(0.7)">
    <path d="M0,0 Q10,-10 20,0 T40,0 T60,0 T80,0 Q90,10 80,20 Q70,30 60,20 T40,20 T20,20 Q10,30 0,20 Q-10,10 0,0 Z" fill="#F0F8FF" opacity="0.8"/>
  </g>
  <g transform="translate(220,30) scale(0.5)">
    <path d="M0,0 Q10,-10 20,0 T40,0 T60,0 T80,0 Q90,10 80,20 Q70,30 60,20 T40,20 T20,20 Q10,30 0,20 Q-10,10 0,0 Z" fill="#F0F8FF" opacity="0.8"/>
  </g>
  
  <!-- 텍스트 (더 귀여운 스타일) -->
  <path id="textPath" d="M50,185 Q150,165 250,185" fill="none"/>
  <text font-family="'Comic Sans MS', cursive" font-size="28" fill="#FF69B4" filter="url(#shadow)">
    <textPath href="#textPath" startOffset="50%">
      <tspan text-anchor="middle">스위트홈</tspan>
    </textPath>
  </text>
  
  <!-- 하트 장식 -->
  <path d="M35,70 Q35,55 50,55 Q65,55 65,70 Q65,85 50,100 Q35,85 35,70 Z" fill="#FFB6C1" opacity="0.7">
    <animate attributeName="opacity" values="0.7;0.9;0.7" dur="2s" repeatCount="indefinite"/>
  </path>
  <path d="M265,70 Q265,55 250,55 Q235,55 235,70 Q235,85 250,100 Q265,85 265,70 Z" fill="#FFB6C1" opacity="0.7">
    <animate attributeName="opacity" values="0.7;0.9;0.7" dur="2s" repeatCount="indefinite"/>
  </path>
</svg>
